<?xml version="1.0" encoding="UTF-8"?>
<svg id="Layer_1" data-name="Layer 1" xmlns="http://www.w3.org/2000/svg" viewBox="0 0 303.77 299.49">
  <defs>
    <style>
      .cls-1 {
        fill: #fff;
      }

      .cls-2 {
        fill: #f3ab4e;
      }

      .cls-3 {
        fill: #f4ac4e;
      }

      .cls-4 {
        fill: none;
        stroke: #1e2a43;
        stroke-miterlimit: 10;
        stroke-width: 6px;
      }

      .cls-5 {
        fill: #1e2a43;
      }

      .cls-6 {
        fill: #1b2a43;
      }

      .cls-7 {
        fill: #1c2a43;
      }
    </style>
  </defs>
  <polygon class="cls-7" points="148.99 11.21 5.81 66.29 64.3 89.47 148.99 123.04 289.98 67.12 148.99 11.21"/>
  <path class="cls-6" d="M147.89,119.73l-84.53-30.91,1.56,122.24c.18,14.17,4.45,28.07,12.7,39.59,8.43,11.78,22.48,24.43,45.83,33.03.83.42,19.61,4.59,24.41,11.27-.04.32-.02-5.84.03-16,.05,10.16.07,16.32.03,16,4.8-6.68,23.58-10.85,24.41-11.27,23.35-8.6,37.39-21.26,45.83-33.03,8.25-11.52,12.52-25.42,12.7-39.59l1.56-122.24-84.53,30.91Z"/>
  <polygon class="cls-2" points="64.01 138.91 138.09 168.94 138.09 196.9 158.54 196.9 158.54 167.9 231.78 138.91 232.42 88.82 148.99 123.04 63.37 88.82 64.01 138.91"/>
  <rect class="cls-1" x="96.78" y="178.54" width="19.61" height="19.61"/>
  <rect class="cls-2" x="116.44" y="197.78" width="19.61" height="19.61"/>
  <rect class="cls-2" x="180.65" y="178.54" width="19.61" height="19.61"/>
  <rect class="cls-1" x="160.62" y="197.78" width="19.61" height="19.61"/>
  <path class="cls-3" d="M159.96,69.53c3.12.86,6.24,1.71,9.36,2.57l22.49,6.17,27.23,7.47,23.56,6.46c3.82,1.05,7.64,2.26,11.5,3.16.05.01.11.03.16.04,3.11.85,4.43-3.97,1.33-4.82s-6.24-1.71-9.36-2.57l-22.49-6.17-27.23-7.47-23.56-6.46c-3.82-1.05-7.64-2.26-11.5-3.16-.05-.01-.11-.03-.16-.04-3.11-.85-4.43,3.97-1.33,4.82h0Z"/>
  <circle class="cls-5" cx="255.71" cy="126.43" r="9.6"/>
  <line class="cls-4" x1="255.71" y1="88.82" x2="255.71" y2="119.28"/>
</svg>