<?xml version="1.0" encoding="UTF-8"?>
<svg id="Layer_1" data-name="Layer 1" xmlns="http://www.w3.org/2000/svg" viewBox="0 0 531.24 439.96">
  <defs>
    <style>
      .cls-1 {
        fill: #fff;
      }

      .cls-2 {
        fill: #f3ab4e;
      }

      .cls-3 {
        fill: #f9f9f9;
      }

      .cls-4 {
        fill: #463c4b;
      }

      .cls-5 {
        fill: #1c2a43;
      }

      .cls-6 {
        fill: #fefefe;
      }

      .cls-7 {
        fill: #42618e;
      }

      .cls-8 {
        fill: #32283c;
      }
    </style>
  </defs>
  <path class="cls-7" d="M115.14,72.12c15.9-.1,31.7-.2,47.6-.2,48-.1,96-.1,143.9-.2,6.2-2.3,12.5-2.2,18.8-.2,8,.1,16,.3,24.1.3,27.6.1,55.3,0,82.9,0,7-.2,12.3,4.5,14.2,12.7.3,9-3.2,17-5.9,25.3-16.6,49.8-33.1,99.5-49.7,149.3-1.1,3.3-2.6,6.6-3.8,9.9.3,3.7-2.4,5.6-4.5,7.9-5.9,6.4-13.4,9.8-21.7,11.5-5.8.9-11.7-.1-17.5.8-15.2-.6-30.4.2-45.6-1.4-4.3-.2-8.6-.6-12.9-.6-33.1-.1-66.1-.1-99.2-.2-15.4-1.2-23.8-11-29.2-24.2-2.2-5.5-3.8-11.3-5.7-17-16.2-48.5-32.3-97-48.5-145.5-1.1-3.2-2-6.4-2.1-9.8-.3-9.8,5.2-16.6,14.8-18.4Z"/>
  <path class="cls-5" d="M115.14,72.12c-12.6,5.8-16,13.7-11.6,27,17.4,52.3,35,104.5,52.1,156.8,5.1,15.6,13.6,27,30.2,31.1-32.5,0-65,.3-97.5,0-15.1-.1-27.3-10.5-32.6-26.3-15-44.9-29.9-89.8-44.9-134.7-3.2-9.5-6.4-19.1-9.5-28.6-4.7-14.5,3.3-25.5,18.5-25.5,31.8,0,63.5.1,95.3.2Z"/>
  <path class="cls-4" d="M362.04,287.02c10.6-2.8,19.2-8.4,25.1-17.9,15-.1,29.9.8,43.8,7.1,33.9,15.4,52.4,41.7,55.3,78.9.8,9.9-2.5,12.9-12.7,13-5.4,0-10.8.1-16.2.2-4.3,2.7-9.1,1.2-13.7,1.5-4.1-.3-8.2.1-12.3,0-2,0-4.2,0-5.8-1.5-1.9-.1-3.7-.2-5.6-.2H113.04c-1.9,0-3.7.1-5.6.2-4.3,2.7-9.1,1.2-13.7,1.5-4.1-.3-8.2.1-12.3,0-2,0-4.2,0-5.8-1.5-2.8-.1-5.6-.2-8.4-.2-7.9,0-11.5-2.8-11.5-8.8-.1-6.2,3.5-9.1,11.3-9.1h56.5c76.9,0,153.8,0,230.7-.1,1.9,0,5.1,1.9,5.7-2.1,6,.8,12.1.9,18.1.3,27.5.8,54.9.2,82.4.3,4.8,0,5.5-.9,4.1-5.9-7.3-27.3-24.9-44.5-52.2-51.6-13.8-3.6-27.9-1.4-41.9-2-2.8-.4-6,.5-8.4-2.1Z"/>
  <path class="cls-8" d="M325.44,71.52c-6.3.7-12.5.4-18.8.2,5-15.2,9.7-30.5,15.1-45.6,3.1-8.6,9.6-14.1,18.6-16.1,3-.7,5.4-1.7,7.4-4.2,3.2-3.9,7.8-5.6,12.9-5.6,9,0,17.9-.1,26.9,0,10.1.2,17.8,8,17.9,17.8.1,9.7-7.7,17.8-17.7,18-9.1.2-18.3.1-27.4,0-5.1,0-9.7-1.8-12.8-5.8-3.5-4.5-5.9-2.1-8.2.8-1,1.3-1.5,3-2.1,4.5-3.9,12-7.8,24-11.8,36Z"/>
  <path class="cls-7" d="M93.84,368.22h13.5c14.4,4.1,24.5,12.6,28.1,27.7,5.3,21.9-11.6,43.8-34,43.9-2.2,0-4.5-.1-6.7-.2-19.7-.5-31.5-20.3-31.8-34.9-.2-16,12.1-35.4,30.9-36.5Z"/>
  <path class="cls-7" d="M443.84,368.22h13.5c14.4,4.1,24.5,12.6,28.1,27.7,5.3,21.9-11.6,43.8-34,43.9-2.2,0-4.5-.1-6.7-.2-19.7-.5-31.5-20.3-31.8-34.9-.3-16,12.1-35.4,30.9-36.5Z"/>
  <path class="cls-7" d="M470.54,9.22c4.4-6.6,10.6-9.5,18.5-9.2,7.8.3,15.6,0,23.5.1,10.8.1,18.8,7.9,18.7,18.1-.1,9.9-8,17.6-18.5,17.7-7.6.1-15.3-.3-22.9.1-8.1.4-14.6-2.3-19.2-9-5-5.3-5-12.5-.1-17.8Z"/>
  <path class="cls-8" d="M377.74,348.72c-6,1.7-12.1,3-17.8-.9-6.8-33.3-29.5-55.2-62.1-60,15.2-.9,30.5-1.2,45.7.1,1.8-.2,3.2.8,4.5,1.9,16.1,14.1,26.6,31.4,30.6,52.6.3,2.2.9,4.4-.9,6.3Z"/>
  <path class="cls-5" d="M93.84,368.22c-14.4,4.4-24.8,12.7-28.4,28.2-4.4,19.2,8.3,38.8,28,42.4.5.1,1,.5,1.4.8-6,.3-12,.7-17.8-.3-16.8-2.9-29.3-16.4-30.3-32.6-1.1-17.4,9.1-32.1,25.8-37.4,1-.3,2.3,0,3-1.2,6.2.1,12.2.1,18.3.1Z"/>
  <path class="cls-5" d="M443.84,368.22c-14.4,4.4-24.8,12.7-28.4,28.2-4.4,19.2,8.3,38.8,28,42.4.5.1,1,.5,1.4.8-6,.3-12,.7-17.8-.3-16.8-2.9-29.3-16.4-30.3-32.6-1.1-17.4,9.1-32.1,25.8-37.4,1-.3,2.3,0,3-1.2,6.1.1,12.2.1,18.3.1Z"/>
  <path class="cls-4" d="M470.54,9.22c-2.9,6-2.7,11.9,0,17.9-4.5,1.3-6.4,4.7-7.7,8.8-5.3,16.3-10.8,32.5-16.2,48.8-3.1-6-7.6-10.6-14.2-12.7,4.5-15.9,9.7-31.6,15.6-47,3.8-9.8,12-14.8,22.5-15.8Z"/>
  <path class="cls-6" d="M377.74,348.72c-2.5-25.3-14.6-45.2-34.2-60.8,6.1-1.7,12.4-.1,18.5-.9,11.6.1,23.2.1,34.7.2,34.2.4,62.4,23.5,70,56.7,1.1,4.7.5,6.3-5,6.2-26.1-.3-52.3-.1-78.4-.2-1.9.1-4.1.9-5.6-1.2Z"/>
  <path class="cls-1" d="M184.34,134.72c0-5.6-.1-11.2,0-16.8.1-6.8,3.3-9.9,10-10.1,5.2-.1,10.5-.1,15.7,0,6.3.1,10,3.3,10.1,9.5.3,11.6.3,23.2,0,34.7-.2,6.3-3.8,9.4-10.1,9.5-5.2.1-10.5.1-15.7,0-6.6-.1-9.8-3.3-9.9-10.1-.1-5.5-.1-11.1-.1-16.7Z"/>
  <path class="cls-1" d="M256.14,134.92c0-5.8-.1-11.6,0-17.4.2-6.4,3.3-9.6,9.7-9.8,5.4-.1,10.8-.1,16.2,0,6,.1,9.6,3.3,9.8,9.3.3,11.8.3,23.5,0,35.3-.2,6-3.8,9.1-9.8,9.2-5.4.1-10.8.1-16.2,0-6.3-.2-9.5-3.4-9.6-9.8-.2-5.6-.1-11.2-.1-16.8Z"/>
  <path class="cls-1" d="M327.94,134.82c0-5.8-.1-11.6,0-17.4.2-6.4,3.4-9.5,9.8-9.6,5.2-.1,10.5-.1,15.7,0,6.4.1,10.1,3.2,10.2,9.4.3,11.6.3,23.2,0,34.7-.1,6.3-3.7,9.5-10,9.7-5.4.1-10.8.1-16.2,0-6.1-.2-9.3-3.4-9.5-9.4-.1-5.8,0-11.6,0-17.4Z"/>
  <path class="cls-1" d="M184.34,224.42c0-5.6-.1-11.2,0-16.8.1-6.8,3.3-9.9,9.9-10.1,5.2-.1,10.5-.1,15.7,0,6.3.1,10,3.3,10.1,9.5.3,11.6.3,23.2,0,34.7-.2,6.3-3.8,9.4-10.1,9.5-5.2.1-10.5.1-15.7,0-6.6-.1-9.8-3.3-9.9-10.1v-16.7Z"/>
  <path class="cls-1" d="M256.14,224.62c0-6-.1-12,0-17.9.2-5.7,3.4-8.9,9.2-9.1,5.6-.2,11.2-.2,16.8,0,5.7.1,9.4,3.2,9.6,8.8.4,11.9.4,23.9,0,35.8-.2,5.9-3.9,9-9.9,9.1-5.4.1-10.8.1-16.2,0-6.1-.2-9.3-3.4-9.5-9.4-.1-5.8,0-11.6,0-17.3Z"/>
  <path class="cls-1" d="M327.94,224.12c0-5.6-.1-11.2,0-16.8.2-6.5,3.3-9.6,9.7-9.8,5.4-.1,10.8-.1,16.2,0,6,.1,9.7,3.3,9.8,9.2.3,11.8.3,23.5,0,35.3-.2,6-3.8,9.1-9.8,9.2-5.4.1-10.8.1-16.2,0-6.3-.2-9.4-3.4-9.7-9.8v-17.3Z"/>
  <path class="cls-1" d="M82.64,404.02c-.1-9.8,7.8-17.9,17.6-18.1,10-.2,18.3,8,18.3,18-.1,9.7-8.2,17.8-17.9,17.8-9.9.1-17.9-7.9-18-17.7Z"/>
  <path class="cls-1" d="M432.54,403.72c.1-9.8,8.1-17.8,17.9-17.8s17.9,8,17.9,17.8c.1,9.9-8.3,18.2-18.3,18.1-9.7-.2-17.6-8.2-17.5-18.1Z"/>
  <path class="cls-2" d="M77.14.12c1.7.9,3.6.8,5.4,1.1,31,5.6,53.1,37.3,47.5,68.2-4.3,23.7-17.9,39.9-40.6,47.6-25.4,8.7-53.7-.8-68.7-24.1-14.6-22.5-13.1-49.8,3.6-70.7C34.24,10.02,47.24,2.92,62.84.62c.5-.1,1.2.2,1.6-.6,4.2.1,8.4.1,12.7.1Z"/>
  <path class="cls-3" d="M70.94,54.72h21c3.4,0,5.4,1.6,6,4.4.8,3.5-1.9,6.4-6,6.4-7.8.1-15.7,0-23.5,0-6.3,0-12.6.1-18.9,0-3.2,0-5.2-1.7-5.7-4.4-.5-2.5.7-4.8,3-5.9,1.2-.6,2.5-.5,3.8-.5,6.6,0,13.4,0,20.3,0Z"/>
</svg>